<svg width="20" height="16" viewBox="0 0 20 16" fill="none" xmlns="http://www.w3.org/2000/svg">
<path d="M1.77794 4.81786C1.528 4.63933 1.40303 4.55007 1.29408 4.53848C1.13114 4.52114 0.967838 4.60518 0.887235 4.74784C0.833337 4.84324 0.833339 4.99513 0.833344 5.29891V10.7011C0.833334 11.3719 0.833325 11.9255 0.870173 12.3765C0.908444 12.8449 0.990581 13.2755 1.19666 13.68C1.51623 14.3072 2.02617 14.8171 2.65338 15.1367C3.05782 15.3428 3.48841 15.4249 3.95682 15.4632C4.40781 15.5 4.96144 15.5 5.63224 15.5H14.3678C15.0386 15.5 15.5922 15.5 16.0432 15.4632C16.5116 15.4249 16.9422 15.3428 17.3466 15.1367C17.9739 14.8171 18.4838 14.3072 18.8034 13.68C19.0094 13.2755 19.0916 12.8449 19.1298 12.3765C19.1667 11.9255 19.1667 11.3719 19.1667 10.7011V5.2989C19.1667 5.15001 19.1667 5.07557 19.153 5.02358C19.0914 4.78856 18.8359 4.65468 18.6075 4.73776C18.557 4.75614 18.4951 4.79905 18.3711 4.88487L11.9193 9.35161C11.4619 9.6693 11.0602 9.94823 10.6039 10.0588C10.2048 10.1556 9.78803 10.1525 9.3904 10.0499C8.93578 9.93261 8.53828 9.6478 8.08555 9.32342L1.77794 4.81786Z" fill="#6C7275" fill-opacity="0.5"/>
<path d="M18.444 2.80727C18.5978 2.70077 18.6748 2.64752 18.722 2.56187C18.7587 2.49536 18.7797 2.39003 18.7713 2.31454C18.7605 2.21733 18.7191 2.15314 18.6365 2.02478C18.32 1.53304 17.8644 1.12713 17.3466 0.863313C16.9422 0.657237 16.5116 0.5751 16.0432 0.536829C15.5922 0.499982 15.0386 0.49999 14.3678 0.5H5.63226C4.96146 0.49999 4.40782 0.499982 3.95682 0.536829C3.48841 0.5751 3.05782 0.657237 2.65338 0.863313C2.18752 1.10068 1.78484 1.44384 1.47865 1.86112C1.38232 1.99241 1.33415 2.05805 1.31828 2.15767C1.30587 2.23558 1.3232 2.34381 1.35931 2.41395C1.40549 2.50364 1.48559 2.56085 1.64578 2.67527L8.95837 7.89856C9.56439 8.33142 9.69299 8.40674 9.80679 8.4361C9.93934 8.4703 10.0783 8.47132 10.2113 8.43908C10.3255 8.41139 10.4552 8.33797 11.0675 7.91406L18.444 2.80727Z" fill="#6C7275" fill-opacity="0.5"/>
</svg>
